<svg class="svg-icon" style="width: 1em; height: 1em;vertical-align: middle;fill: currentColor;overflow: hidden;" viewBox="0 0 1024 1024" version="1.1" xmlns="http://www.w3.org/2000/svg"><path d="M224.561403 320 224.561403 896 778.105263 896 778.105263 320 712.982456 320 712.982456 832 289.68421 832 289.68421 320 224.561403 320 224.561403 320ZM387.368421 320.664062 452.491228 320.664062 452.491228 768.664062 387.368421 768.664062 387.368421 320.664062 387.368421 320.664062ZM550.175438 320.664062 615.298246 320.664062 615.298246 768.664062 550.175438 768.664062 550.175438 320.664062 550.175438 320.664062ZM387.368421 192 192 192 192 256 810.666664 256 810.666664 192 647.859649 192 647.859649 128 387.368421 128 387.368421 192 387.368421 192Z"  /></svg>