<svg class="svg-icon" style="width: 1em; height: 1em;vertical-align: middle;fill: currentColor;overflow: hidden;" viewBox="0 0 1024 1024" version="1.1" xmlns="http://www.w3.org/2000/svg"><path d="M989.44 112.256l-77.696-77.696c-17.92-17.632-46.56-17.632-64.16 0l-81.28 81.28 141.792 141.856 81.312-81.024c17.696-18.144 17.696-46.752 0.032-64.416l0 0 0 0zM742.304 140.128l-439.584 453.632-36 163.552 163.552-36 451.328-442.144-139.296-139.04zM839.168 511.968l0 383.328c0 13.024-9.952 25.824-23.552 25.824-13.536 0-687.52-0.256-687.52-0.256-14.304 0-25.056-13.792-25.056-25.568l0-684.928c0-12.768 12-25.568 27.104-25.568l381.856 0 81.792-81.76-512.672 0c-33.216 0-59.808 26.336-59.808 59.552l0 780.224c0 32.992 26.848 59.84 59.808 59.84l780.256 0c32.992 0 59.552-26.848 59.552-59.84l0-512.64-81.76 81.792z"  /></svg>