<svg class="svg-icon" style="width: 1em; height: 1em;vertical-align: middle;fill: currentColor;overflow: hidden;" viewBox="0 0 1024 1024" version="1.1" xmlns="http://www.w3.org/2000/svg"><path d="M512 384 512 384C473.6 384 448 358.4 448 320l0 0c0-38.4 25.6-64 64-64l0 0c38.4 0 64 25.6 64 64l0 0C576 358.4 550.4 384 512 384z"  /><path d="M576 640 576 512c0-38.4-25.6-64-64-64L448 448C409.6 448 384 473.6 384 512s25.6 64 64 64l0 64c-38.4 0-64 25.6-64 64s25.6 64 64 64l128 0c38.4 0 64-25.6 64-64S614.4 640 576 640z"  /></svg>